<svg width="0" height="0" class="hidden">
  <symbol xmlns="http://www.w3.org/2000/svg" viewBox="0 0 18 13" id="login">
    <path d="M9.62056 9.09278L10.6389 10.1111L14.25 6.5L10.6389 2.88889L9.62056 3.90722L11.4839 5.77778H0V7.22222H11.4839L9.62056 9.09278ZM16.0556 0H5.94444C5.14278 0 4.5 0.65 4.5 1.44444V4.33333H5.94444V1.44444H16.0556V11.5556H5.94444V8.66667H4.5V11.5556C4.5 12.35 5.14278 13 5.94444 13H16.0556C16.85 13 17.5 12.35 17.5 11.5556V1.44444C17.5 0.65 16.85 0 16.0556 0Z" ></path>
  </symbol>
  <symbol  viewBox="0 0 30 29"  xmlns="http://www.w3.org/2000/svg" id="search">
    <rect width="9.15446" height="2.28862" transform="matrix(-0.718931 0.695081 0.718931 0.695081 6.58105 21.0461)" />
    <path fill-rule="evenodd" clip-rule="evenodd" d="M16.1246 24.174C10.0376 24.174 5.32763 19.2726 5.32763 13.5104C5.32763 7.74823 10.0376 2.84676 16.1246 2.84676C22.2115 2.84676 26.9215 7.74823 26.9215 13.5104C26.9215 19.2726 22.2115 24.174 16.1246 24.174ZM16.1246 26.8399C8.76285 26.8399 2.79502 20.8721 2.79502 13.5104C2.79502 6.14869 8.76285 0.180847 16.1246 0.180847C23.4863 0.180847 29.4541 6.14869 29.4541 13.5104C29.4541 20.8721 23.4863 26.8399 16.1246 26.8399Z" />
</symbol>
<symbol viewBox="0 0 23 23" fill="none" xmlns="http://www.w3.org/2000/svg" id="close">
<rect width="29.567" height="2.9567" transform="matrix(0.707093 0.707121 -0.707093 0.707121 2.09375 0)" fill="white"/>
<rect width="29.567" height="2.9567" transform="matrix(0.707093 -0.707121 0.707093 0.707121 0 20.9074)" fill="white"/>
</symbol>

<symbol width="2" height="10" viewBox="0 0 2 10" xmlns="http://www.w3.org/2000/svg" id="info">
<path d="M0.261539 3.4551H1.73846V10H0.261539V3.4551ZM1 1.90259C0.712821 1.90259 0.471795 1.81126 0.276924 1.62861C0.0923081 1.44597 0 1.22273 0 0.958904C0 0.695079 0.0923081 0.471841 0.276924 0.289193C0.471795 0.0963976 0.712821 0 1 0C1.28718 0 1.52308 0.0913239 1.70769 0.273972C1.90256 0.446473 2 0.664636 2 0.928462C2 1.20243 1.90256 1.43582 1.70769 1.62861C1.52308 1.81126 1.28718 1.90259 1 1.90259Z"/>
</symbol>
<symbol viewBox="0 0 40 40" fill="none" xmlns="http://www.w3.org/2000/svg" id="whatsapp">
<g clip-path="url(#clip0_191243_648)">
<path d="M20 39.375C30.7005 39.375 39.375 30.7005 39.375 20C39.375 9.29948 30.7005 0.625 20 0.625C9.29948 0.625 0.625 9.29948 0.625 20C0.625 30.7005 9.29948 39.375 20 39.375Z" fill="#30BF39"/>
<path d="M25.875 21.751C25.625 21.626 24.3125 20.876 24.0625 20.8135C23.8125 20.6885 23.625 20.6885 23.4375 20.9385C23.25 21.1885 22.6875 21.8135 22.5625 21.9385C22.375 22.126 22.25 22.126 22 22.001C21.75 21.876 20.875 21.5635 19.875 20.5635C19.125 19.8135 18.5625 18.9385 18.4375 18.626C18.3125 18.376 18.4375 18.1885 18.5625 18.0635C18.6875 17.9385 18.8125 17.751 19 17.626C19.1875 17.501 19.1875 17.376 19.3125 17.1885C19.4375 17.001 19.375 16.876 19.3125 16.6885C19.25 16.501 18.75 15.1885 18.5625 14.626C18.375 14.0635 18.125 14.1885 18 14.126C17.8125 14.126 17.6875 14.0635 17.5 14.0635C17.25 14.0635 16.9375 14.1885 16.75 14.376C16.5 14.626 15.75 15.251 15.75 16.5635C15.75 17.876 16.625 19.251 16.75 19.376C16.875 19.5635 18.5 22.4385 21.1875 23.626C23.875 24.8135 23.875 24.4385 24.375 24.4385C24.875 24.4385 26 23.8135 26.25 23.251C26.5 22.626 26.5 22.0635 26.4375 22.001C26.3125 22.001 26.125 21.9385 25.875 21.751ZM20.875 28.1885C19.125 28.1885 17.5 27.6885 16.0625 26.751L12.6875 27.8135L13.8125 24.5635C12.75 23.0635 12.125 21.251 12.125 19.376C12.125 14.501 16.0625 10.5635 20.9375 10.5635C25.8125 10.5635 29.6875 14.501 29.6875 19.376C29.6875 24.251 25.75 28.1885 20.875 28.1885ZM20.875 8.81348C15.0625 8.81348 10.3125 13.5635 10.3125 19.376C10.3125 21.3135 10.8125 23.1885 11.8125 24.8135L9.875 30.501L15.75 28.626C17.3125 29.501 19.0625 29.9385 20.875 29.9385C26.6875 29.9385 31.4375 25.1885 31.4375 19.376C31.4375 13.5635 26.75 8.81348 20.875 8.81348Z" fill="white"/>
</g>
<defs>
<clipPath id="clip0_191243_648">
<rect width="40" height="40" fill="white"/>
</clipPath>
</defs>
</symbol>
<symbol viewBox="0 0 40 40" fill="none" xmlns="http://www.w3.org/2000/svg" id="telegram">
<g clip-path="url(#clip0_191243_651)">
<path d="M20 40C31.0457 40 40 31.0457 40 20C40 8.95431 31.0457 0 20 0C8.95431 0 0 8.95431 0 20C0 31.0457 8.95431 40 20 40Z" fill="#26A5E4"/>
<path fill-rule="evenodd" clip-rule="evenodd" d="M9.05321 19.7889L20.7168 14.7649C26.2711 12.4547 27.4251 12.0534 28.1774 12.0402C28.3429 12.0373 28.7128 12.0783 28.9524 12.2727C29.1548 12.4369 29.2104 12.6587 29.2371 12.8143C29.2637 12.9699 29.2969 13.3246 29.2705 13.6017C28.9695 16.7641 27.6671 24.4386 27.0046 27.9806C26.7242 29.4794 26.1726 29.9819 25.6378 30.0311C24.4763 30.138 23.5944 29.2635 22.4694 28.5261L18.0061 25.528C16.0314 24.2268 17.3115 23.5116 18.4369 22.3428C18.7314 22.0368 23.8487 17.3823 23.9477 16.96C23.9597 16.9072 23.9716 16.7104 23.8547 16.6064C23.7377 16.5024 23.565 16.5384 23.4405 16.5663C23.264 16.6064 20.452 18.465 15.0044 22.1423C14.2062 22.6904 13.4832 22.9575 12.8355 22.9435C12.1214 22.9281 10.7478 22.5397 9.72661 22.2078C8.47408 21.8007 7.4786 21.5854 7.56532 20.8939C7.61044 20.5338 8.1064 20.1655 9.05317 19.789L9.05321 19.7889Z" fill="white"/>
</g>
<defs>
<clipPath id="clip0_191243_651">
<rect width="40" height="40" fill="white"/>
</clipPath>
</defs>
</symbol>

<symbol viewBox="0 0 60 60"  xmlns="http://www.w3.org/2000/svg" id="vk">
<path d="M30 0C13.432 0 0 13.4314 0 30C0 46.5686 13.432 60 30 60C46.568 60 60 46.5686 60 30C60 13.4314 46.568 0 30 0ZM45.2176 33.2446C46.6159 34.6103 48.0951 35.8957 49.3504 37.4026C49.9065 38.0692 50.4307 38.7585 50.8297 39.5337C51.3993 40.6392 50.8849 41.8515 49.8954 41.9171L43.7494 41.9159C42.162 42.0473 40.8988 41.4071 39.8339 40.3218C38.9837 39.457 38.195 38.5332 37.3762 37.6389C37.0416 37.2718 36.6893 36.9262 36.2695 36.6543C35.4316 36.1093 34.7036 36.2762 34.2236 37.1515C33.7344 38.0421 33.6227 39.0292 33.5761 40.0205C33.5092 41.4697 33.0721 41.8484 31.618 41.9165C28.5109 42.062 25.5628 41.5906 22.8227 40.0241C20.4055 38.6425 18.5346 36.6924 16.9043 34.4845C13.7297 30.1805 11.2984 25.4566 9.11386 20.597C8.6222 19.5026 8.98189 18.917 10.1893 18.8943C12.1952 18.8557 14.2011 18.8606 16.2071 18.8925C17.0234 18.9054 17.5636 19.3725 17.8772 20.1428C18.9612 22.8098 20.2901 25.3473 21.9554 27.7007C22.3992 28.3274 22.8522 28.9522 23.4973 29.3948C24.2093 29.8834 24.7519 29.7219 25.0877 28.9271C25.3025 28.4219 25.3952 27.8817 25.4418 27.3404C25.6014 25.486 25.6205 23.6323 25.3442 21.7854C25.1724 20.6296 24.5224 19.8832 23.3702 19.6647C22.7834 19.5536 22.8694 19.3363 23.1548 19.0011C23.6501 18.4217 24.1142 18.0632 25.0416 18.0632L31.9857 18.062C33.0801 18.2768 33.3256 18.7679 33.4742 19.8703L33.4803 27.5871C33.4674 28.0137 33.6945 29.2782 34.4606 29.5574C35.0744 29.76 35.4795 29.2677 35.8465 28.8792C37.5118 27.112 38.6983 25.0263 39.7608 22.8675C40.2298 21.9155 40.6343 20.9303 41.0271 19.9433C41.3193 19.2135 41.7735 18.8544 42.5972 18.8667L49.2841 18.8747C49.4811 18.8747 49.6812 18.8765 49.8764 18.9103C51.0034 19.103 51.3121 19.5879 50.9635 20.6873C50.4147 22.4145 49.3485 23.8533 48.3063 25.2958C47.1892 26.8401 45.9977 28.3304 44.8917 29.8815C43.8752 31.2994 43.9556 32.0133 45.2176 33.2446Z" />
</symbol>


<symbol viewBox="0 0 60 60"  xmlns="http://www.w3.org/2000/svg" id="ok">
<path d="M25.7054 19.9812C25.7054 22.4546 27.7105 24.4598 30.1838 24.4598C32.6572 24.4598 34.6623 22.4546 34.6623 19.9812C34.6623 17.5079 32.6572 15.5028 30.1838 15.5028C27.7105 15.5028 25.7054 17.5079 25.7054 19.9812Z" />
<path fill-rule="evenodd" clip-rule="evenodd" d="M30 60C46.5686 60 60 46.5685 60 30C60 13.4315 46.5686 0 30 0C13.4314 0 0 13.4315 0 30C0 46.5685 13.4314 60 30 60ZM19.35 19.9811C19.35 13.9978 24.2004 9.14729 30.1838 9.14729C36.1673 9.14729 41.0176 13.9978 41.0176 19.9811C41.0176 25.9645 36.1673 30.8154 30.1838 30.8154C24.2004 30.8154 19.35 25.9645 19.35 19.9811ZM41.0823 36.3881C40.9448 36.4983 38.3457 38.5522 34.0085 39.4358L40.5554 45.9243C41.7067 47.0738 41.7081 48.9389 40.5586 50.0902C39.4091 51.2414 37.5444 51.2432 36.3927 50.0935L30.0368 43.904L24.2639 50.0536C23.6859 50.6532 22.9149 50.9547 22.1431 50.9547C21.407 50.9547 20.6703 50.6808 20.0986 50.1296C18.9274 49.0003 18.8935 47.1355 20.0228 45.9643L26.2369 39.4701C21.7782 38.6073 19.0718 36.4998 18.9324 36.3881C17.6633 35.3702 17.4594 33.5163 18.4772 32.247C19.4949 30.9778 21.3487 30.7739 22.6182 31.7916C22.645 31.8133 25.4756 33.9398 30.0366 33.9429C34.5977 33.9398 37.3698 31.8133 37.3966 31.7916C38.666 30.7739 40.5198 30.9778 41.5375 32.247C42.5553 33.5163 42.3515 35.3702 41.0823 36.3881Z" />
</symbol>



</svg>